<svg xmlns="http://www.w3.org/2000/svg" xmlns:xlink="http://www.w3.org/1999/xlink" width="512" zoomAndPan="magnify" viewBox="0 0 384 383.999986" height="512" preserveAspectRatio="xMidYMid meet" version="1.0"><defs><g/><clipPath id="dde92d9e81"><path d="M 0.367188 0.6875 L 219.050781 0.6875 L 219.050781 34.300781 L 0.367188 34.300781 Z M 0.367188 0.6875 " clip-rule="nonzero"/></clipPath><clipPath id="59472cc4eb"><path d="M 0.367188 0.6875 L 219.050781 0.6875 L 219.050781 34.300781 L 0.367188 34.300781 Z M 0.367188 0.6875 " clip-rule="nonzero"/></clipPath><clipPath id="f4d1e8347d"><rect x="0" width="220" y="0" height="35"/></clipPath><clipPath id="22f72f0910"><rect x="0" width="220" y="0" height="363"/></clipPath></defs><rect x="-38.4" width="460.8" fill="#ffffff" y="-38.399999" height="460.799983" fill-opacity="1"/><rect x="-38.4" width="460.8" fill="#000000" y="-38.399999" height="460.799983" fill-opacity="1"/><g transform="matrix(1, 0, 0, 1, 87, 21)"><g clip-path="url(#22f72f0910)"><g fill="#ffffff" fill-opacity="1"><g transform="translate(29.595011, 330.408507)"><g><path d="M 140.21875 -101.9375 L 140.21875 -65.625 C 140.21875 -43.488281 134.8125 -26.492188 124 -14.640625 C 113.195312 -2.796875 97.253906 3.125 76.171875 3.125 C 55.078125 3.125 39.125 -2.796875 28.3125 -14.640625 C 17.507812 -26.492188 12.109375 -43.488281 12.109375 -65.625 L 12.109375 -207.796875 C 12.109375 -229.929688 17.507812 -246.921875 28.3125 -258.765625 C 39.125 -270.617188 55.078125 -276.546875 76.171875 -276.546875 C 97.253906 -276.546875 113.195312 -270.617188 124 -258.765625 C 134.8125 -246.921875 140.21875 -229.929688 140.21875 -207.796875 L 140.21875 -181.234375 L 99.59375 -181.234375 L 99.59375 -210.53125 C 99.59375 -220.425781 97.578125 -227.390625 93.546875 -231.421875 C 89.515625 -235.460938 84.113281 -237.484375 77.34375 -237.484375 C 70.570312 -237.484375 65.164062 -235.460938 61.125 -231.421875 C 57.09375 -227.390625 55.078125 -220.425781 55.078125 -210.53125 L 55.078125 -62.890625 C 55.078125 -52.992188 57.09375 -46.09375 61.125 -42.1875 C 65.164062 -38.28125 70.570312 -36.328125 77.34375 -36.328125 C 84.113281 -36.328125 89.515625 -38.28125 93.546875 -42.1875 C 97.578125 -46.09375 99.59375 -52.992188 99.59375 -62.890625 L 99.59375 -101.9375 Z M 140.21875 -101.9375 "/></g></g></g><g clip-path="url(#dde92d9e81)"><g><g clip-path="url(#f4d1e8347d)"><g clip-path="url(#59472cc4eb)"><path fill="#5e17eb" d="M 0.367188 0.6875 L 219.105469 0.6875 L 219.105469 34.300781 L 0.367188 34.300781 Z M 0.367188 0.6875 " fill-opacity="1" fill-rule="nonzero"/></g></g></g></g></g></g></svg>